<svg xmlns="http://www.w3.org/2000/svg" xmlns:xlink="http://www.w3.org/1999/xlink" width="400" zoomAndPan="magnify" viewBox="0 0 300 299.999988" height="400" preserveAspectRatio="xMidYMid meet" version="1.0"><defs><g/><clipPath id="6bd4e9f074"><path d="M 1 12.207031 L 299 12.207031 L 299 189 L 1 189 Z M 1 12.207031 " clip-rule="nonzero"/></clipPath><clipPath id="6cb90da764"><path d="M 3 210 L 297 210 L 297 288.035156 L 3 288.035156 Z M 3 210 " clip-rule="nonzero"/></clipPath><clipPath id="8b5064427c"><path d="M 107 21.273438 L 193 21.273438 L 193 83 L 107 83 Z M 107 21.273438 " clip-rule="nonzero"/></clipPath><clipPath id="3f18a4cf03"><path d="M 90 56 L 210 56 L 210 110.523438 L 90 110.523438 Z M 90 56 " clip-rule="nonzero"/></clipPath></defs><rect x="-30" width="360" fill="#ffffff" y="-29.999999" height="359.999986" fill-opacity="1"/><rect x="-30" width="360" fill="#6d3bd1" y="-29.999999" height="359.999986" fill-opacity="1"/><path fill="#1b1919" d="M 175.09375 185.195312 L 175.09375 188.9375 L 176.929688 188.9375 L 176.929688 185.195312 L 175.09375 185.195312 " fill-opacity="1" fill-rule="nonzero"/><path fill="#1b1919" d="M 201.164062 185.195312 L 201.164062 188.9375 L 203 188.9375 L 203 185.195312 L 201.164062 185.195312 " fill-opacity="1" fill-rule="nonzero"/><path fill="#1b1919" d="M 97 185.195312 L 97 188.9375 L 98.765625 188.9375 L 98.765625 185.195312 L 97 185.195312 " fill-opacity="1" fill-rule="nonzero"/><path fill="#1b1919" d="M 123 185.195312 L 123 188.9375 L 124.835938 188.9375 L 124.835938 185.195312 L 123 185.195312 " fill-opacity="1" fill-rule="nonzero"/><g clip-path="url(#6bd4e9f074)"><path fill="#1b1919" d="M 1.292969 12.230469 L 1.292969 188.9375 L 72.789062 188.9375 L 72.789062 185.195312 L 5.035156 185.195312 L 5.035156 15.972656 L 294.964844 15.972656 L 294.964844 185.195312 L 227.210938 185.195312 L 227.210938 188.9375 L 298.707031 188.9375 L 298.707031 12.230469 L 1.292969 12.230469 " fill-opacity="1" fill-rule="nonzero"/></g><path fill="#1b1919" d="M 150.882812 185.195312 L 149.046875 185.195312 L 149.046875 188.9375 L 150.882812 188.9375 L 150.882812 185.195312 " fill-opacity="1" fill-rule="nonzero"/><path fill="#1b1919" d="M 172.214844 180.523438 L 153.789062 180.523438 C 152.742188 180.523438 151.90625 181.382812 151.90625 182.40625 L 151.90625 193.582031 C 152.601562 192.515625 153.765625 191.769531 155.113281 191.769531 L 174.070312 191.769531 L 174.070312 182.40625 C 174.070312 181.382812 173.234375 180.523438 172.214844 180.523438 " fill-opacity="1" fill-rule="nonzero"/><path fill="#1b1919" d="M 198.261719 180.523438 L 179.835938 180.523438 C 178.8125 180.523438 177.953125 181.382812 177.953125 182.40625 L 177.953125 191.769531 L 180.089844 191.769531 C 182.25 191.769531 184.015625 193.535156 184.015625 195.695312 L 184.015625 208.382812 L 186.503906 208.382812 L 186.503906 195.695312 C 186.503906 193.535156 188.246094 191.769531 190.429688 191.769531 L 200.140625 191.769531 L 200.140625 182.40625 C 200.140625 181.382812 199.304688 180.523438 198.261719 180.523438 " fill-opacity="1" fill-rule="nonzero"/><path fill="#1b1919" d="M 148.023438 193.628906 L 148.023438 182.40625 C 148.023438 181.382812 147.1875 180.523438 146.144531 180.523438 L 127.71875 180.523438 C 126.695312 180.523438 125.835938 181.382812 125.835938 182.40625 L 125.835938 191.769531 L 144.773438 191.769531 C 146.167969 191.769531 147.328125 192.535156 148.023438 193.628906 " fill-opacity="1" fill-rule="nonzero"/><path fill="#1b1919" d="M 120.097656 180.523438 L 101.671875 180.523438 C 100.625 180.523438 99.789062 181.382812 99.789062 182.40625 L 99.789062 191.769531 L 109.476562 191.769531 C 111.636719 191.769531 113.402344 193.535156 113.402344 195.695312 L 113.402344 208.382812 L 115.890625 208.382812 L 115.890625 195.695312 C 115.890625 193.535156 117.65625 191.769531 119.816406 191.769531 L 121.976562 191.769531 L 121.976562 182.40625 C 121.976562 181.382812 121.140625 180.523438 120.097656 180.523438 " fill-opacity="1" fill-rule="nonzero"/><path fill="#1b1919" d="M 224.308594 180.523438 L 205.882812 180.523438 C 204.859375 180.523438 204.023438 181.382812 204.023438 182.40625 L 204.023438 191.769531 L 215.382812 191.769531 C 217.546875 191.769531 219.3125 193.535156 219.3125 195.695312 L 219.3125 208.382812 L 221.796875 208.382812 L 221.796875 195.695312 C 221.796875 193.535156 223.5625 191.769531 225.722656 191.769531 L 226.1875 191.769531 L 226.1875 182.40625 C 226.1875 181.382812 225.351562 180.523438 224.308594 180.523438 " fill-opacity="1" fill-rule="nonzero"/><path fill="#1b1919" d="M 94.117188 180.523438 L 75.691406 180.523438 C 74.648438 180.523438 73.8125 181.382812 73.8125 182.40625 L 73.8125 191.769531 L 74.277344 191.769531 C 76.4375 191.769531 78.203125 193.535156 78.203125 195.695312 L 78.203125 208.382812 L 80.59375 208.382812 L 80.59375 195.695312 C 80.59375 193.535156 82.339844 191.769531 84.5 191.769531 L 95.976562 191.769531 L 95.976562 182.40625 C 95.976562 181.382812 95.140625 180.523438 94.117188 180.523438 " fill-opacity="1" fill-rule="nonzero"/><path fill="#1b1919" d="M 148.816406 202.503906 C 148.769531 202.503906 148.746094 202.480469 148.699219 202.457031 L 148.699219 208.894531 C 149.09375 208.753906 149.535156 208.664062 149.976562 208.664062 C 150.394531 208.664062 150.8125 208.730469 151.183594 208.847656 L 151.183594 193.488281 C 150.882812 193.164062 150.441406 193 150 193 C 149.535156 193 149.09375 193.164062 148.816406 193.535156 L 148.816406 202.503906 " fill-opacity="1" fill-rule="nonzero"/><path fill="#1b1919" d="M 46.765625 195.695312 L 46.765625 208.382812 L 47.390625 208.382812 C 50.320312 208.382812 52.714844 210.777344 52.714844 213.703125 L 52.714844 231.550781 C 53.222656 231.363281 53.757812 231.269531 54.316406 231.269531 C 54.875 231.269531 55.433594 231.363281 55.941406 231.527344 L 55.941406 213.703125 C 55.941406 210.777344 58.335938 208.382812 61.265625 208.382812 L 76.808594 208.382812 L 76.808594 195.695312 C 76.808594 194.304688 75.667969 193.164062 74.277344 193.164062 L 49.296875 193.164062 C 47.902344 193.164062 46.765625 194.304688 46.765625 195.695312 " fill-opacity="1" fill-rule="nonzero"/><path fill="#1b1919" d="M 148.375 222.929688 C 148.351562 222.90625 148.304688 222.90625 148.257812 222.882812 L 148.257812 231.597656 C 148.792969 231.386719 149.371094 231.269531 149.976562 231.269531 C 150.558594 231.269531 151.09375 231.363281 151.625 231.527344 L 151.625 210.707031 C 151.207031 210.265625 150.582031 210.054688 149.976562 210.054688 C 149.371094 210.054688 148.769531 210.289062 148.375 210.800781 L 148.375 222.929688 " fill-opacity="1" fill-rule="nonzero"/><path fill="#1b1919" d="M 245.660156 231.269531 C 246.21875 231.269531 246.777344 231.363281 247.285156 231.527344 L 247.285156 213.703125 C 247.285156 210.777344 249.679688 208.382812 252.609375 208.382812 L 253.234375 208.382812 L 253.234375 195.695312 C 253.234375 194.304688 252.097656 193.164062 250.703125 193.164062 L 225.722656 193.164062 C 224.332031 193.164062 223.191406 194.304688 223.191406 195.695312 L 223.191406 208.382812 L 238.597656 208.382812 C 241.546875 208.382812 243.917969 210.777344 243.917969 213.703125 L 243.917969 231.597656 C 244.453125 231.386719 245.03125 231.269531 245.660156 231.269531 " fill-opacity="1" fill-rule="nonzero"/><path fill="#1b1919" d="M 152.578125 195.695312 L 152.578125 210.683594 C 153.53125 209.289062 155.136719 208.382812 156.925781 208.382812 L 182.621094 208.382812 L 182.621094 195.695312 C 182.621094 194.304688 181.484375 193.164062 180.089844 193.164062 L 155.113281 193.164062 C 153.71875 193.164062 152.578125 194.304688 152.578125 195.695312 " fill-opacity="1" fill-rule="nonzero"/><path fill="#1b1919" d="M 81.964844 195.695312 L 81.964844 208.382812 L 95.09375 208.382812 C 98.023438 208.382812 100.414062 210.777344 100.414062 213.703125 L 100.414062 231.527344 C 100.925781 231.363281 101.484375 231.269531 102.042969 231.269531 C 102.667969 231.269531 103.25 231.386719 103.785156 231.597656 L 103.785156 213.703125 C 103.785156 210.777344 106.179688 208.382812 109.105469 208.382812 L 112.035156 208.382812 L 112.035156 195.695312 C 112.035156 194.304688 110.871094 193.164062 109.476562 193.164062 L 84.5 193.164062 C 83.105469 193.164062 81.964844 194.304688 81.964844 195.695312 " fill-opacity="1" fill-rule="nonzero"/><path fill="#1b1919" d="M 187.875 195.695312 L 187.875 208.382812 L 190.753906 208.382812 C 193.707031 208.382812 196.074219 210.777344 196.074219 213.703125 L 196.074219 231.527344 C 196.609375 231.363281 197.144531 231.269531 197.726562 231.269531 C 198.328125 231.269531 198.910156 231.386719 199.445312 231.597656 L 199.445312 213.703125 C 199.445312 210.777344 201.839844 208.382812 204.765625 208.382812 L 217.941406 208.382812 L 217.941406 195.695312 C 217.941406 194.304688 216.800781 193.164062 215.382812 193.164062 L 190.429688 193.164062 C 189.011719 193.164062 187.875 194.304688 187.875 195.695312 " fill-opacity="1" fill-rule="nonzero"/><path fill="#1b1919" d="M 117.261719 195.695312 L 117.261719 208.382812 L 142.9375 208.382812 C 144.75 208.382812 146.375 209.3125 147.328125 210.707031 L 147.328125 195.695312 C 147.328125 194.304688 146.1875 193.164062 144.773438 193.164062 L 119.816406 193.164062 C 118.421875 193.164062 117.261719 194.304688 117.261719 195.695312 " fill-opacity="1" fill-rule="nonzero"/><g clip-path="url(#6cb90da764)"><path fill="#1b1919" d="M 293.617188 232.945312 C 292.621094 232.945312 291.757812 233.429688 291.179688 234.152344 L 291.179688 250.53125 C 290.785156 250.300781 290.34375 250.113281 289.878906 249.976562 L 289.878906 213.703125 C 289.878906 211.800781 288.34375 210.265625 286.4375 210.265625 L 252.609375 210.265625 C 250.703125 210.265625 249.167969 211.800781 249.167969 213.703125 L 249.167969 249.976562 C 248.703125 250.113281 248.261719 250.300781 247.867188 250.53125 L 247.867188 234.035156 C 247.285156 233.453125 246.472656 233.152344 245.660156 233.152344 C 244.824219 233.152344 244.011719 233.453125 243.476562 234.152344 L 243.476562 250.601562 C 243.035156 250.347656 242.546875 250.136719 242.035156 249.976562 L 242.035156 213.703125 C 242.035156 211.800781 240.503906 210.265625 238.597656 210.265625 L 204.765625 210.265625 C 202.882812 210.265625 201.328125 211.800781 201.328125 213.703125 L 201.328125 249.976562 C 200.816406 250.136719 200.351562 250.347656 199.886719 250.601562 L 199.886719 234.152344 C 199.351562 233.453125 198.539062 233.152344 197.726562 233.152344 C 196.914062 233.152344 196.074219 233.453125 195.519531 234.035156 L 195.519531 250.53125 C 195.101562 250.300781 194.683594 250.113281 194.21875 249.976562 L 194.21875 213.703125 C 194.21875 211.800781 192.660156 210.265625 190.753906 210.265625 L 156.925781 210.265625 C 155.042969 210.265625 153.484375 211.800781 153.484375 213.703125 L 153.484375 249.976562 C 153.042969 250.113281 152.601562 250.300781 152.183594 250.53125 L 152.183594 234.035156 C 151.625 233.453125 150.8125 233.152344 149.976562 233.152344 C 149.164062 233.152344 148.351562 233.453125 147.816406 234.152344 L 147.816406 250.601562 C 147.375 250.347656 146.886719 250.136719 146.375 249.976562 L 146.375 213.703125 C 146.375 211.800781 144.839844 210.265625 142.9375 210.265625 L 109.105469 210.265625 C 107.199219 210.265625 105.644531 211.800781 105.644531 213.703125 L 105.644531 249.976562 C 105.15625 250.136719 104.667969 250.347656 104.226562 250.601562 L 104.226562 234.152344 C 103.691406 233.453125 102.878906 233.152344 102.042969 233.152344 C 101.230469 233.152344 100.414062 233.453125 99.835938 234.035156 L 99.835938 250.53125 C 99.441406 250.300781 99 250.113281 98.535156 249.976562 L 98.535156 213.703125 C 98.535156 211.800781 97 210.265625 95.09375 210.265625 L 61.265625 210.265625 C 59.359375 210.265625 57.824219 211.800781 57.824219 213.703125 L 57.824219 249.976562 C 57.359375 250.113281 56.917969 250.300781 56.523438 250.53125 L 56.523438 234.035156 C 55.941406 233.453125 55.128906 233.152344 54.316406 233.152344 C 53.480469 233.152344 52.667969 233.453125 52.132812 234.152344 L 52.132812 250.53125 C 51.738281 250.300781 51.296875 250.113281 50.832031 249.976562 L 50.832031 213.703125 C 50.832031 211.800781 49.296875 210.265625 47.390625 210.265625 L 13.5625 210.265625 C 11.65625 210.265625 10.121094 211.800781 10.121094 213.703125 L 10.121094 249.976562 C 9.65625 250.113281 9.214844 250.300781 8.820312 250.53125 L 8.820312 234.152344 C 8.242188 233.429688 7.378906 232.945312 6.382812 232.945312 C 4.683594 232.945312 3.316406 234.335938 3.316406 236.011719 L 3.316406 261.546875 C 3.316406 263.242188 4.683594 264.613281 6.382812 264.613281 C 7.824219 264.613281 9.03125 263.613281 9.355469 262.289062 C 10.191406 262.683594 11.121094 262.917969 12.121094 262.917969 L 21.855469 262.917969 L 21.855469 279.832031 L 17.953125 279.832031 C 15.699219 279.832031 13.863281 281.667969 13.863281 283.921875 C 13.863281 286.199219 15.699219 288.035156 17.953125 288.035156 L 43 288.035156 C 45.253906 288.035156 47.089844 286.199219 47.089844 283.921875 C 47.089844 281.667969 45.253906 279.832031 43 279.832031 L 39.097656 279.832031 L 39.097656 262.917969 L 48.832031 262.917969 C 49.832031 262.917969 50.761719 262.683594 51.597656 262.289062 C 51.921875 263.613281 53.132812 264.613281 54.570312 264.613281 C 55.941406 264.613281 57.082031 263.707031 57.476562 262.453125 C 58.21875 262.730469 58.988281 262.917969 59.824219 262.917969 L 69.558594 262.917969 L 69.558594 279.832031 L 65.65625 279.832031 C 63.402344 279.832031 61.566406 281.667969 61.566406 283.921875 C 61.566406 286.199219 63.402344 288.035156 65.65625 288.035156 L 90.703125 288.035156 C 92.957031 288.035156 94.792969 286.199219 94.792969 283.921875 C 94.792969 281.667969 92.957031 279.832031 90.703125 279.832031 L 86.800781 279.832031 L 86.800781 262.917969 L 96.558594 262.917969 C 97.371094 262.917969 98.160156 262.730469 98.882812 262.453125 C 99.277344 263.707031 100.414062 264.613281 101.785156 264.613281 C 103.25 264.613281 104.480469 263.589844 104.785156 262.242188 C 105.667969 262.660156 106.621094 262.917969 107.640625 262.917969 L 117.402344 262.917969 L 117.402344 279.832031 L 113.359375 279.832031 C 111.105469 279.832031 109.269531 281.667969 109.269531 283.921875 C 109.269531 286.199219 111.105469 288.035156 113.359375 288.035156 L 138.40625 288.035156 C 140.660156 288.035156 142.519531 286.199219 142.519531 283.921875 C 142.519531 281.667969 140.660156 279.832031 138.40625 279.832031 L 134.640625 279.832031 L 134.640625 262.917969 L 144.378906 262.917969 C 145.398438 262.917969 146.375 262.660156 147.234375 262.242188 C 147.558594 263.589844 148.792969 264.613281 150.230469 264.613281 C 151.601562 264.613281 152.765625 263.707031 153.160156 262.453125 C 153.878906 262.730469 154.671875 262.917969 155.484375 262.917969 L 165.242188 262.917969 L 165.242188 279.832031 L 161.339844 279.832031 C 159.0625 279.832031 157.226562 281.667969 157.226562 283.921875 C 157.226562 286.199219 159.0625 288.035156 161.339844 288.035156 L 186.363281 288.035156 C 188.640625 288.035156 190.476562 286.199219 190.476562 283.921875 C 190.476562 281.667969 188.640625 279.832031 186.363281 279.832031 L 182.460938 279.832031 L 182.460938 262.917969 L 192.21875 262.917969 C 193.03125 262.917969 193.820312 262.730469 194.542969 262.453125 C 194.9375 263.707031 196.097656 264.613281 197.46875 264.613281 C 198.910156 264.613281 200.140625 263.589844 200.46875 262.242188 C 201.328125 262.660156 202.28125 262.917969 203.324219 262.917969 L 213.0625 262.917969 L 213.0625 279.832031 L 209.296875 279.832031 C 207.042969 279.832031 205.207031 281.667969 205.207031 283.921875 C 205.207031 286.199219 207.042969 288.035156 209.296875 288.035156 L 234.34375 288.035156 C 236.597656 288.035156 238.433594 286.199219 238.433594 283.921875 C 238.433594 281.667969 236.597656 279.832031 234.34375 279.832031 L 230.300781 279.832031 L 230.300781 262.917969 L 240.0625 262.917969 C 241.082031 262.917969 242.035156 262.660156 242.917969 262.242188 C 243.21875 263.589844 244.453125 264.613281 245.914062 264.613281 C 247.285156 264.613281 248.425781 263.707031 248.820312 262.453125 C 249.539062 262.730469 250.332031 262.917969 251.167969 262.917969 L 260.902344 262.917969 L 260.902344 279.832031 L 257 279.832031 C 254.746094 279.832031 252.886719 281.667969 252.886719 283.921875 C 252.886719 286.199219 254.746094 288.035156 257 288.035156 L 282.046875 288.035156 C 284.300781 288.035156 286.136719 286.199219 286.136719 283.921875 C 286.136719 281.667969 284.300781 279.832031 282.046875 279.832031 L 278.144531 279.832031 L 278.144531 262.917969 L 287.878906 262.917969 C 288.878906 262.917969 289.808594 262.683594 290.644531 262.289062 C 290.96875 263.613281 292.175781 264.613281 293.617188 264.613281 C 295.316406 264.613281 296.683594 263.242188 296.683594 261.546875 L 296.683594 236.011719 C 296.683594 234.335938 295.316406 232.945312 293.617188 232.945312 " fill-opacity="1" fill-rule="nonzero"/></g><path fill="#1b1919" d="M 150.007812 102.613281 C 144.28125 102.613281 139.605469 98.089844 139.359375 92.417969 C 136.207031 90.734375 133.046875 89.195312 129.886719 87.945312 C 128.613281 88.457031 127.28125 88.699219 125.960938 88.699219 C 122.863281 88.699219 119.835938 87.347656 117.78125 84.882812 C 116.972656 84.816406 116.171875 84.78125 115.367188 84.78125 C 114.4375 84.78125 113.523438 84.828125 112.613281 84.921875 C 119.917969 98.0625 133.929688 106.953125 150.007812 106.953125 C 154.210938 106.953125 158.273438 106.34375 162.113281 105.210938 C 159.738281 104.007812 157.367188 102.703125 155.011719 101.363281 C 153.519531 102.160156 151.816406 102.613281 150.007812 102.613281 " fill-opacity="1" fill-rule="nonzero"/><g clip-path="url(#8b5064427c)"><path fill="#1b1919" d="M 150.007812 25.617188 C 153.246094 25.617188 156.140625 27.058594 158.09375 29.339844 C 158.644531 29.976562 159.113281 30.675781 159.5 31.429688 C 160.246094 32.890625 160.664062 34.539062 160.664062 36.285156 C 160.664062 37.585938 160.429688 38.839844 160 39.996094 C 159.730469 40.734375 159.375 41.441406 158.953125 42.089844 C 157.050781 45.023438 153.757812 46.957031 150.007812 46.957031 C 144.121094 46.957031 139.347656 42.179688 139.347656 36.285156 C 139.347656 30.390625 144.121094 25.617188 150.007812 25.617188 Z M 167.136719 42.089844 C 167.625 41.671875 168.160156 41.289062 168.734375 40.953125 C 169.441406 40.546875 170.175781 40.226562 170.929688 39.996094 C 171.953125 39.679688 173.007812 39.527344 174.050781 39.527344 C 175.113281 39.527344 176.171875 39.683594 177.183594 39.996094 C 178.566406 40.421875 179.867188 41.128906 180.984375 42.089844 C 181.882812 42.851562 182.664062 43.785156 183.289062 44.859375 C 185.207031 48.191406 185.132812 52.128906 183.433594 55.285156 C 183.03125 56.03125 182.53125 56.730469 181.953125 57.375 C 181.234375 58.167969 180.371094 58.871094 179.390625 59.441406 C 177.714844 60.414062 175.878906 60.875 174.070312 60.875 C 173.648438 60.875 173.226562 60.847656 172.800781 60.792969 C 172.09375 60.710938 171.394531 60.554688 170.714844 60.332031 C 169 59.765625 167.429688 58.761719 166.171875 57.375 C 165.671875 56.820312 165.222656 56.210938 164.835938 55.535156 C 164.789062 55.453125 164.742188 55.367188 164.695312 55.285156 C 162.273438 50.800781 163.378906 45.3125 167.136719 42.089844 Z M 115.367188 55.117188 C 115.742188 55.117188 116.125 55.125 116.503906 55.136719 C 114.878906 52.011719 114.832031 48.144531 116.71875 44.859375 C 118.304688 42.121094 120.917969 40.34375 123.796875 39.753906 C 124.507812 39.597656 125.230469 39.527344 125.960938 39.527344 C 127.769531 39.527344 129.601562 39.988281 131.277344 40.953125 C 136.367188 43.910156 138.117188 50.429688 135.175781 55.535156 C 134.371094 56.9375 133.289062 58.085938 132.046875 58.957031 C 132.421875 59.113281 132.800781 59.273438 133.183594 59.441406 C 136.855469 61.050781 140.550781 63.011719 144.207031 65.074219 C 144.15625 64.761719 144.128906 64.441406 144.128906 64.117188 C 144.128906 60.859375 146.757812 58.226562 150.007812 58.226562 C 153.257812 58.226562 155.882812 60.859375 155.882812 64.117188 C 155.882812 66.640625 154.300781 68.789062 152.074219 69.625 C 155.886719 71.847656 159.738281 74.0625 163.601562 75.992188 C 163.820312 74.863281 164.226562 73.746094 164.835938 72.691406 C 166.191406 70.335938 168.320312 68.691406 170.714844 67.898438 C 171.394531 67.671875 172.09375 67.515625 172.800781 67.433594 C 173.226562 67.378906 173.648438 67.355469 174.070312 67.355469 C 175.882812 67.355469 177.710938 67.816406 179.390625 68.785156 C 183.230469 71.003906 185.164062 75.25 184.628906 79.394531 C 184.511719 80.308594 184.277344 81.214844 183.914062 82.09375 C 184.160156 82.101562 184.402344 82.105469 184.644531 82.105469 C 186.117188 82.105469 187.5625 81.988281 188.984375 81.753906 C 189.335938 80.980469 189.664062 80.191406 189.96875 79.394531 C 191.777344 74.648438 192.769531 69.496094 192.769531 64.117188 C 192.769531 61.820312 192.59375 59.570312 192.246094 57.375 C 192.132812 56.675781 192.003906 55.972656 191.863281 55.285156 C 190.871094 50.550781 189.101562 46.105469 186.691406 42.089844 C 186.265625 41.378906 185.824219 40.683594 185.351562 39.996094 C 183.179688 36.808594 180.585938 33.925781 177.652344 31.429688 C 176.789062 30.699219 175.902344 30.003906 174.984375 29.339844 C 167.957031 24.265625 159.328125 21.277344 150.007812 21.277344 C 140.128906 21.277344 131.035156 24.625 123.796875 30.265625 C 115.742188 36.53125 109.980469 45.621094 107.996094 56.050781 C 110.386719 55.429688 112.835938 55.117188 115.359375 55.117188 L 115.367188 55.117188 " fill-opacity="1" fill-rule="nonzero"/></g><g clip-path="url(#3f18a4cf03)"><path fill="#1b1919" d="M 209.105469 91.585938 C 209.105469 92.222656 208.589844 93.320312 207.953125 93.988281 C 201.195312 101.085938 194.4375 104.320312 187.679688 105.042969 C 187.640625 105.050781 187.597656 105.050781 187.558594 105.050781 C 186.980469 105.050781 186.527344 104.585938 186.527344 103.988281 L 186.527344 89.761719 C 186.527344 89.125 187.042969 88.578125 187.679688 88.507812 C 194.4375 87.789062 201.195312 84.554688 207.953125 77.453125 C 208.289062 77.101562 208.59375 76.914062 208.804688 76.914062 C 208.992188 76.914062 209.105469 77.058594 209.105469 77.359375 Z M 208.441406 97.472656 C 208.441406 97.617188 208.324219 97.859375 208.183594 98.011719 C 207.632812 98.59375 207.085938 99.152344 206.539062 99.683594 C 206.46875 99.753906 206.402344 99.785156 206.359375 99.785156 C 206.308594 99.785156 206.277344 99.75 206.277344 99.675781 L 206.277344 96.980469 C 206.277344 96.839844 206.394531 96.609375 206.539062 96.46875 C 207.085938 95.9375 207.632812 95.378906 208.183594 94.796875 C 208.257812 94.71875 208.324219 94.675781 208.371094 94.675781 C 208.414062 94.675781 208.441406 94.710938 208.441406 94.78125 Z M 203.226562 102.34375 C 203.230469 102.488281 203.113281 102.699219 202.96875 102.808594 C 202.421875 103.238281 201.871094 103.644531 201.324219 104.027344 C 201.269531 104.066406 201.214844 104.085938 201.171875 104.085938 C 201.105469 104.085938 201.0625 104.035156 201.0625 103.949219 L 201.0625 101.253906 C 201.0625 101.109375 201.179688 100.910156 201.324219 100.8125 C 201.871094 100.429688 202.421875 100.023438 202.96875 99.597656 C 203.027344 99.546875 203.085938 99.523438 203.128906 99.523438 C 203.191406 99.523438 203.226562 99.566406 203.226562 99.652344 Z M 198.015625 105.808594 C 198.015625 105.953125 197.898438 106.132812 197.753906 106.207031 C 197.207031 106.496094 196.65625 106.761719 196.109375 107.007812 C 196.070312 107.027344 196.039062 107.035156 196.003906 107.035156 C 195.914062 107.035156 195.847656 106.972656 195.847656 106.867188 L 195.847656 104.171875 C 195.847656 104.027344 195.96875 103.859375 196.109375 103.792969 C 196.65625 103.546875 197.207031 103.28125 197.753906 102.992188 C 197.796875 102.96875 197.839844 102.957031 197.875 102.957031 C 197.957031 102.957031 198.015625 103.015625 198.015625 103.113281 Z M 192.800781 108 C 192.800781 108.144531 192.683594 108.296875 192.539062 108.339844 C 191.992188 108.503906 191.441406 108.648438 190.894531 108.773438 C 190.875 108.777344 190.855469 108.777344 190.839844 108.777344 C 190.722656 108.777344 190.636719 108.695312 190.632812 108.570312 L 190.632812 105.878906 C 190.632812 105.734375 190.753906 105.589844 190.894531 105.558594 C 191.441406 105.429688 191.992188 105.285156 192.539062 105.125 C 192.566406 105.117188 192.589844 105.113281 192.617188 105.113281 C 192.722656 105.113281 192.800781 105.1875 192.800781 105.308594 Z M 187.585938 109.058594 C 187.585938 109.207031 187.46875 109.332031 187.324219 109.347656 C 186.777344 109.398438 186.230469 109.433594 185.683594 109.449219 L 185.671875 109.449219 C 185.53125 109.449219 185.421875 109.339844 185.421875 109.199219 L 185.421875 106.507812 C 185.421875 106.359375 185.535156 106.242188 185.683594 106.238281 C 186.230469 106.21875 186.777344 106.179688 187.324219 106.128906 C 187.335938 106.128906 187.34375 106.128906 187.351562 106.128906 C 187.480469 106.128906 187.585938 106.230469 187.585938 106.367188 Z M 185.199219 104.046875 C 185.199219 104.671875 184.695312 105.199219 184.074219 105.199219 L 184.046875 105.199219 C 179.328125 105.101562 174.609375 103.902344 169.886719 102.050781 C 167.847656 101.253906 165.8125 100.335938 163.773438 99.332031 C 163.140625 99.019531 162.621094 98.238281 162.621094 97.601562 L 162.621094 83.375 C 162.621094 82.921875 162.882812 82.664062 163.261719 82.664062 C 163.414062 82.664062 163.589844 82.707031 163.773438 82.796875 C 164.113281 82.964844 164.457031 83.132812 164.796875 83.296875 C 169.183594 85.390625 173.566406 87.066406 177.949219 87.960938 C 179.984375 88.375 182.015625 88.625 184.046875 88.664062 C 184.347656 88.671875 184.625 88.789062 184.832031 88.976562 C 185.058594 89.1875 185.199219 89.484375 185.199219 89.816406 Z M 182.371094 109.125 C 182.371094 109.261719 182.265625 109.363281 182.132812 109.363281 L 182.113281 109.363281 C 181.5625 109.320312 181.015625 109.257812 180.46875 109.1875 C 180.324219 109.167969 180.207031 109.035156 180.207031 108.890625 L 180.207031 106.199219 C 180.207031 106.066406 180.304688 105.96875 180.433594 105.96875 C 180.445312 105.96875 180.453125 105.96875 180.46875 105.972656 C 181.015625 106.042969 181.5625 106.105469 182.113281 106.148438 C 182.253906 106.160156 182.375 106.285156 182.371094 106.433594 Z M 177.160156 108.332031 C 177.160156 108.457031 177.070312 108.539062 176.957031 108.539062 C 176.9375 108.539062 176.917969 108.539062 176.898438 108.535156 C 176.351562 108.40625 175.804688 108.265625 175.253906 108.117188 C 175.109375 108.078125 174.992188 107.925781 174.992188 107.785156 L 174.992188 105.089844 C 174.992188 104.972656 175.074219 104.890625 175.1875 104.890625 C 175.207031 104.890625 175.230469 104.894531 175.253906 104.902344 C 175.804688 105.050781 176.351562 105.191406 176.898438 105.316406 C 177.042969 105.351562 177.160156 105.496094 177.160156 105.640625 Z M 171.769531 107.007812 C 171.746094 107.007812 171.714844 107 171.683594 106.988281 C 171.136719 106.792969 170.585938 106.589844 170.039062 106.378906 C 169.894531 106.320312 169.777344 106.15625 169.78125 106.015625 L 169.78125 103.320312 C 169.777344 103.210938 169.847656 103.140625 169.945312 103.140625 C 169.972656 103.140625 170.007812 103.148438 170.039062 103.160156 C 170.585938 103.375 171.136719 103.578125 171.683594 103.773438 C 171.828125 103.824219 171.945312 103.984375 171.941406 104.128906 C 171.945312 105.027344 171.945312 105.921875 171.945312 106.820312 C 171.945312 106.933594 171.871094 107.007812 171.769531 107.007812 Z M 166.730469 104.730469 C 166.730469 104.835938 166.667969 104.898438 166.574219 104.898438 C 166.542969 104.898438 166.507812 104.886719 166.472656 104.871094 C 166 104.660156 165.535156 104.441406 165.066406 104.21875 C 164.988281 104.183594 164.90625 104.144531 164.824219 104.105469 C 164.683594 104.039062 164.566406 103.867188 164.566406 103.722656 L 164.566406 101.03125 C 164.566406 100.925781 164.625 100.863281 164.714844 100.863281 C 164.746094 100.863281 164.785156 100.871094 164.824219 100.890625 C 165.375 101.152344 165.921875 101.410156 166.472656 101.65625 C 166.613281 101.71875 166.730469 101.894531 166.730469 102.035156 Z M 161.515625 80.34375 C 161.515625 80.441406 161.460938 80.5 161.375 80.5 C 161.339844 80.5 161.296875 80.488281 161.253906 80.464844 C 160.707031 80.179688 160.160156 79.890625 159.609375 79.59375 C 159.46875 79.515625 159.351562 79.335938 159.351562 79.191406 L 159.351562 76.5 C 159.351562 76.398438 159.40625 76.34375 159.488281 76.34375 C 159.527344 76.34375 159.566406 76.355469 159.609375 76.378906 C 160.160156 76.671875 160.707031 76.964844 161.253906 77.25 C 161.398438 77.324219 161.515625 77.503906 161.515625 77.652344 Z M 161.515625 102.195312 C 161.515625 102.292969 161.460938 102.351562 161.375 102.351562 C 161.339844 102.351562 161.296875 102.339844 161.253906 102.320312 C 160.707031 102.03125 160.160156 101.742188 159.609375 101.445312 C 159.46875 101.367188 159.351562 101.1875 159.351562 101.042969 L 159.351562 98.351562 C 159.351562 98.25 159.40625 98.195312 159.488281 98.195312 C 159.527344 98.195312 159.566406 98.207031 159.609375 98.230469 C 160.160156 98.523438 160.707031 98.816406 161.253906 99.101562 C 161.398438 99.179688 161.515625 99.355469 161.515625 99.5 Z M 156.171875 99.503906 C 156.132812 99.503906 156.089844 99.492188 156.042969 99.464844 C 155.496094 99.15625 154.945312 98.84375 154.398438 98.527344 C 154.253906 98.445312 154.136719 98.261719 154.136719 98.117188 L 154.136719 95.425781 C 154.136719 95.328125 154.1875 95.273438 154.269531 95.273438 C 154.304688 95.273438 154.351562 95.289062 154.398438 95.3125 C 154.945312 95.628906 155.496094 95.941406 156.042969 96.25 C 156.1875 96.332031 156.300781 96.519531 156.300781 96.660156 L 156.300781 99.355469 C 156.300781 99.453125 156.25 99.503906 156.171875 99.503906 Z M 151.089844 96.347656 C 151.089844 96.445312 151.035156 96.5 150.957031 96.5 C 150.917969 96.5 150.875 96.484375 150.828125 96.457031 C 150.277344 96.136719 149.730469 95.816406 149.183594 95.496094 C 149.042969 95.410156 148.921875 95.230469 148.921875 95.082031 L 148.921875 92.390625 C 148.921875 92.292969 148.976562 92.238281 149.054688 92.238281 C 149.089844 92.238281 149.136719 92.25 149.183594 92.28125 C 149.730469 92.601562 150.277344 92.921875 150.828125 93.242188 C 150.972656 93.324219 151.089844 93.511719 151.089844 93.65625 Z M 145.875 93.3125 C 145.875 93.410156 145.820312 93.464844 145.742188 93.464844 C 145.703125 93.464844 145.660156 93.453125 145.613281 93.425781 C 145.066406 93.109375 144.515625 92.796875 143.96875 92.484375 C 143.824219 92.402344 143.707031 92.222656 143.707031 92.078125 L 143.707031 89.386719 C 143.707031 89.285156 143.761719 89.230469 143.839844 89.230469 C 143.878906 89.230469 143.921875 89.242188 143.96875 89.269531 C 144.515625 89.582031 145.066406 89.894531 145.613281 90.207031 C 145.757812 90.289062 145.875 90.476562 145.875 90.621094 Z M 139.871094 85.957031 C 139.234375 85.617188 138.71875 84.832031 138.71875 84.191406 L 138.71875 69.96875 C 138.71875 69.523438 138.96875 69.269531 139.332031 69.269531 C 139.492188 69.269531 139.675781 69.320312 139.871094 69.421875 C 146.625 73.03125 153.386719 77.320312 160.144531 80.929688 C 160.78125 81.269531 161.296875 82.054688 161.292969 82.691406 L 161.292969 96.917969 C 161.296875 97.359375 161.046875 97.617188 160.679688 97.617188 C 160.519531 97.617188 160.335938 97.566406 160.144531 97.464844 C 159.882812 97.324219 159.625 97.1875 159.367188 97.046875 C 153.195312 93.703125 147.019531 89.839844 140.847656 86.484375 C 140.523438 86.304688 140.195312 86.128906 139.871094 85.957031 Z M 140.660156 90.386719 C 140.660156 90.488281 140.605469 90.542969 140.523438 90.542969 C 140.488281 90.542969 140.445312 90.53125 140.398438 90.503906 C 140.105469 90.347656 139.8125 90.191406 139.519531 90.035156 C 139.265625 89.902344 139.011719 89.765625 138.757812 89.632812 C 138.609375 89.558594 138.492188 89.382812 138.492188 89.238281 L 138.492188 86.542969 C 138.492188 86.441406 138.550781 86.386719 138.636719 86.386719 C 138.671875 86.386719 138.710938 86.394531 138.757812 86.417969 C 139.300781 86.707031 139.851562 86.996094 140.398438 87.292969 C 140.402344 87.292969 140.40625 87.292969 140.410156 87.296875 C 140.546875 87.378906 140.660156 87.554688 140.660156 87.695312 Z M 137.390625 83.507812 C 137.390625 83.960938 137.128906 84.222656 136.75 84.222656 C 136.597656 84.222656 136.421875 84.179688 136.238281 84.089844 C 135.851562 83.898438 135.464844 83.710938 135.078125 83.527344 C 128.707031 80.496094 122.335938 78.351562 115.964844 78.222656 C 115.714844 78.21875 115.484375 78.136719 115.292969 78 C 115.003906 77.789062 114.8125 77.457031 114.8125 77.066406 L 114.8125 62.839844 C 114.8125 62.210938 115.316406 61.6875 115.941406 61.6875 C 115.949219 61.6875 115.957031 61.6875 115.964844 61.6875 C 122.722656 61.824219 129.480469 64.230469 136.238281 67.554688 C 136.875 67.867188 137.390625 68.648438 137.390625 69.28125 Z M 135.445312 87.710938 C 135.445312 87.8125 135.386719 87.875 135.300781 87.875 C 135.265625 87.875 135.226562 87.863281 135.183594 87.84375 C 134.636719 87.585938 134.089844 87.328125 133.542969 87.082031 C 133.398438 87.015625 133.28125 86.847656 133.28125 86.703125 L 133.28125 84.007812 C 133.28125 83.902344 133.34375 83.839844 133.433594 83.839844 C 133.46875 83.839844 133.503906 83.847656 133.542969 83.863281 C 133.878906 84.019531 134.210938 84.171875 134.550781 84.328125 C 134.761719 84.429688 134.972656 84.527344 135.183594 84.628906 C 135.328125 84.699219 135.445312 84.871094 135.445312 85.019531 Z M 130.230469 85.417969 C 130.230469 85.527344 130.164062 85.59375 130.066406 85.59375 C 130.035156 85.59375 130.003906 85.585938 129.972656 85.574219 C 129.421875 85.363281 128.875 85.15625 128.328125 84.964844 C 128.183594 84.910156 128.066406 84.753906 128.066406 84.609375 L 128.066406 81.917969 C 128.066406 81.804688 128.140625 81.730469 128.242188 81.730469 C 128.269531 81.730469 128.296875 81.738281 128.328125 81.746094 C 128.875 81.941406 129.421875 82.144531 129.972656 82.359375 C 130.117188 82.414062 130.230469 82.578125 130.230469 82.722656 Z M 125.019531 83.648438 C 125.019531 83.769531 124.9375 83.847656 124.828125 83.847656 C 124.804688 83.847656 124.78125 83.84375 124.757812 83.835938 C 124.210938 83.683594 123.664062 83.546875 123.113281 83.417969 C 122.96875 83.386719 122.855469 83.242188 122.855469 83.101562 L 122.855469 80.40625 C 122.855469 80.28125 122.9375 80.195312 123.054688 80.195312 C 123.074219 80.195312 123.09375 80.199219 123.113281 80.203125 C 123.664062 80.332031 124.210938 80.472656 124.757812 80.621094 C 124.898438 80.660156 125.019531 80.808594 125.019531 80.957031 Z M 119.804688 82.539062 C 119.804688 82.671875 119.703125 82.769531 119.578125 82.769531 C 119.566406 82.769531 119.554688 82.769531 119.542969 82.765625 C 118.996094 82.691406 118.449219 82.632812 117.898438 82.589844 C 117.757812 82.578125 117.636719 82.453125 117.636719 82.308594 L 117.636719 79.613281 C 117.636719 79.476562 117.742188 79.371094 117.878906 79.371094 C 117.886719 79.371094 117.894531 79.371094 117.898438 79.375 C 118.449219 79.417969 118.996094 79.476562 119.542969 79.550781 C 119.6875 79.570312 119.804688 79.703125 119.804688 79.847656 Z M 114.589844 60.382812 C 114.589844 60.523438 114.472656 60.644531 114.328125 60.648438 C 113.78125 60.667969 113.234375 60.703125 112.683594 60.753906 L 112.660156 60.753906 C 112.527344 60.753906 112.421875 60.65625 112.425781 60.519531 L 112.425781 57.828125 C 112.421875 57.683594 112.542969 57.550781 112.683594 57.539062 C 113.234375 57.488281 113.78125 57.453125 114.328125 57.433594 L 114.335938 57.433594 C 114.480469 57.433594 114.589844 57.546875 114.589844 57.6875 Z M 114.589844 82.234375 C 114.589844 82.375 114.472656 82.496094 114.328125 82.5 C 113.78125 82.519531 113.234375 82.554688 112.683594 82.605469 L 112.660156 82.605469 C 112.527344 82.605469 112.421875 82.507812 112.425781 82.375 L 112.425781 79.679688 C 112.421875 79.535156 112.542969 79.40625 112.683594 79.390625 C 113.234375 79.339844 113.78125 79.304688 114.328125 79.285156 C 114.332031 79.285156 114.335938 79.285156 114.339844 79.285156 C 114.480469 79.285156 114.589844 79.398438 114.589844 79.539062 Z M 109.808594 78.765625 C 103.890625 79.964844 97.972656 83.214844 92.058594 89.433594 C 91.722656 89.785156 91.417969 89.972656 91.207031 89.972656 C 91.023438 89.972656 90.910156 89.824219 90.910156 89.527344 L 90.910156 75.300781 C 90.910156 74.664062 91.421875 73.566406 92.058594 72.898438 C 97.125 67.574219 102.191406 64.425781 107.257812 62.878906 C 108.949219 62.359375 110.640625 62.023438 112.332031 61.839844 C 112.375 61.839844 112.414062 61.835938 112.449219 61.835938 C 113.03125 61.835938 113.484375 62.300781 113.484375 62.894531 L 113.484375 77.125 C 113.484375 77.761719 112.96875 78.308594 112.332031 78.375 C 111.488281 78.464844 110.648438 78.59375 109.808594 78.765625 Z M 109.375 82.859375 C 109.375 83.007812 109.261719 83.148438 109.117188 83.179688 C 108.566406 83.308594 108.019531 83.453125 107.46875 83.613281 C 107.445312 83.621094 107.417969 83.625 107.394531 83.625 C 107.289062 83.625 107.210938 83.550781 107.210938 83.429688 L 107.210938 80.738281 C 107.210938 80.59375 107.328125 80.441406 107.46875 80.398438 C 108.019531 80.234375 108.566406 80.089844 109.117188 79.964844 C 109.136719 79.960938 109.15625 79.960938 109.171875 79.960938 C 109.289062 79.960938 109.375 80.042969 109.375 80.167969 Z M 104.164062 84.566406 C 104.164062 84.710938 104.046875 84.878906 103.902344 84.945312 C 103.355469 85.191406 102.804688 85.457031 102.257812 85.746094 C 102.214844 85.769531 102.171875 85.78125 102.136719 85.78125 C 102.050781 85.78125 101.996094 85.726562 101.996094 85.625 L 101.996094 82.929688 C 101.996094 82.785156 102.113281 82.605469 102.257812 82.53125 C 102.804688 82.242188 103.355469 81.976562 103.902344 81.726562 C 103.9375 81.710938 103.972656 81.703125 104.007812 81.703125 C 104.097656 81.703125 104.164062 81.769531 104.164062 81.875 Z M 98.949219 87.484375 C 98.949219 87.628906 98.832031 87.828125 98.6875 87.929688 C 98.140625 88.308594 97.589844 88.714844 97.042969 89.144531 C 96.980469 89.191406 96.925781 89.214844 96.878906 89.214844 C 96.820312 89.214844 96.78125 89.171875 96.78125 89.089844 C 96.78125 88.191406 96.78125 87.292969 96.78125 86.394531 C 96.78125 86.253906 96.898438 86.039062 97.042969 85.925781 C 97.589844 85.5 98.140625 85.09375 98.6875 84.710938 C 98.742188 84.675781 98.792969 84.65625 98.835938 84.65625 C 98.902344 84.65625 98.949219 84.703125 98.949219 84.792969 Z M 93.734375 91.757812 C 93.734375 91.902344 93.617188 92.128906 93.472656 92.269531 C 92.925781 92.804688 92.378906 93.359375 91.832031 93.941406 C 91.753906 94.023438 91.683594 94.0625 91.636719 94.0625 C 91.59375 94.0625 91.566406 94.027344 91.566406 93.960938 L 91.566406 91.269531 C 91.566406 91.125 91.683594 90.878906 91.832031 90.726562 C 92.378906 90.144531 92.925781 89.585938 93.472656 89.054688 C 93.542969 88.988281 93.605469 88.953125 93.652344 88.953125 C 93.703125 88.953125 93.734375 88.992188 93.734375 89.0625 Z M 91.566406 69.417969 C 91.566406 69.273438 91.683594 69.027344 91.832031 68.875 C 92.378906 68.292969 92.925781 67.734375 93.472656 67.203125 C 93.542969 67.132812 93.605469 67.101562 93.652344 67.101562 C 93.703125 67.101562 93.734375 67.136719 93.734375 67.210938 L 93.734375 69.90625 C 93.734375 70.046875 93.617188 70.277344 93.472656 70.417969 C 92.925781 70.953125 92.378906 71.507812 91.832031 72.089844 C 91.753906 72.171875 91.683594 72.210938 91.636719 72.210938 C 91.59375 72.210938 91.566406 72.179688 91.566406 72.109375 Z M 96.78125 64.542969 C 96.78125 64.402344 96.898438 64.1875 97.042969 64.074219 C 97.589844 63.648438 98.140625 63.242188 98.6875 62.859375 C 98.742188 62.820312 98.792969 62.804688 98.832031 62.804688 C 98.902344 62.804688 98.949219 62.851562 98.949219 62.941406 L 98.949219 65.636719 C 98.949219 65.777344 98.832031 65.976562 98.6875 66.078125 C 98.140625 66.457031 97.589844 66.863281 97.042969 67.292969 C 96.984375 67.339844 96.925781 67.363281 96.882812 67.363281 C 96.820312 67.363281 96.78125 67.320312 96.78125 67.238281 C 96.78125 66.339844 96.78125 65.441406 96.78125 64.542969 Z M 101.996094 61.078125 C 101.996094 60.933594 102.113281 60.753906 102.257812 60.679688 C 102.804688 60.390625 103.355469 60.125 103.902344 59.878906 C 103.9375 59.859375 103.972656 59.851562 104.007812 59.851562 C 104.097656 59.851562 104.164062 59.917969 104.164062 60.023438 L 104.164062 62.71875 C 104.164062 62.859375 104.046875 63.027344 103.902344 63.09375 C 103.355469 63.339844 102.804688 63.605469 102.257812 63.894531 C 102.214844 63.917969 102.171875 63.929688 102.136719 63.929688 C 102.054688 63.929688 101.996094 63.871094 101.996094 63.773438 Z M 107.210938 58.886719 C 107.210938 58.742188 107.328125 58.589844 107.46875 58.546875 C 107.515625 58.535156 107.558594 58.519531 107.601562 58.507812 C 108.105469 58.359375 108.609375 58.230469 109.117188 58.113281 C 109.136719 58.109375 109.15625 58.109375 109.171875 58.109375 C 109.289062 58.109375 109.375 58.191406 109.375 58.316406 L 109.375 61.007812 C 109.375 61.15625 109.261719 61.296875 109.117188 61.332031 C 108.566406 61.457031 108.019531 61.601562 107.46875 61.761719 C 107.445312 61.769531 107.421875 61.773438 107.398438 61.773438 C 107.363281 61.773438 107.332031 61.765625 107.304688 61.75 C 107.246094 61.71875 107.210938 61.660156 107.210938 61.578125 Z M 119.542969 57.699219 C 119.6875 57.71875 119.804688 57.851562 119.804688 57.996094 L 119.804688 60.6875 C 119.804688 60.820312 119.703125 60.917969 119.578125 60.917969 C 119.566406 60.917969 119.554688 60.917969 119.542969 60.914062 C 118.996094 60.839844 118.449219 60.78125 117.898438 60.738281 C 117.757812 60.726562 117.636719 60.597656 117.636719 60.457031 L 117.636719 57.761719 C 117.636719 57.625 117.742188 57.519531 117.878906 57.519531 C 117.886719 57.519531 117.894531 57.519531 117.898438 57.523438 C 118.007812 57.53125 118.113281 57.539062 118.222656 57.550781 C 118.664062 57.589844 119.101562 57.640625 119.542969 57.699219 Z M 122.855469 58.554688 C 122.855469 58.433594 122.9375 58.347656 123.054688 58.347656 C 123.074219 58.347656 123.09375 58.347656 123.113281 58.351562 C 123.664062 58.480469 124.210938 58.621094 124.757812 58.769531 C 124.898438 58.808594 125.019531 58.957031 125.019531 59.101562 L 125.019531 61.796875 C 125.019531 61.917969 124.933594 61.996094 124.824219 61.996094 C 124.804688 61.996094 124.78125 61.992188 124.757812 61.984375 C 124.210938 61.832031 123.664062 61.695312 123.113281 61.566406 C 122.96875 61.535156 122.855469 61.390625 122.855469 61.25 Z M 128.066406 60.066406 C 128.066406 59.953125 128.140625 59.878906 128.242188 59.878906 C 128.269531 59.878906 128.296875 59.886719 128.328125 59.894531 C 128.6875 60.023438 129.046875 60.15625 129.40625 60.292969 C 129.59375 60.363281 129.78125 60.433594 129.972656 60.507812 C 130.117188 60.5625 130.230469 60.726562 130.230469 60.871094 L 130.230469 63.566406 C 130.230469 63.675781 130.160156 63.742188 130.066406 63.742188 C 130.035156 63.742188 130.003906 63.734375 129.972656 63.722656 C 129.421875 63.511719 128.875 63.308594 128.328125 63.113281 C 128.183594 63.0625 128.066406 62.902344 128.066406 62.757812 Z M 133.28125 62.15625 C 133.28125 62.050781 133.34375 61.988281 133.433594 61.988281 C 133.46875 61.988281 133.503906 61.996094 133.542969 62.015625 C 134.089844 62.261719 134.636719 62.515625 135.183594 62.777344 C 135.328125 62.847656 135.445312 63.019531 135.445312 63.164062 L 135.445312 65.859375 C 135.445312 65.960938 135.386719 66.023438 135.296875 66.023438 C 135.261719 66.023438 135.226562 66.011719 135.183594 65.992188 C 134.636719 65.734375 134.089844 65.476562 133.542969 65.226562 C 133.398438 65.164062 133.28125 64.996094 133.28125 64.851562 Z M 138.492188 64.691406 C 138.492188 64.589844 138.550781 64.535156 138.636719 64.535156 C 138.671875 64.535156 138.710938 64.542969 138.757812 64.566406 C 139.300781 64.855469 139.851562 65.144531 140.398438 65.441406 C 140.542969 65.515625 140.660156 65.699219 140.660156 65.84375 L 140.660156 68.535156 C 140.660156 68.636719 140.605469 68.691406 140.523438 68.691406 C 140.484375 68.691406 140.445312 68.679688 140.398438 68.652344 C 139.851562 68.359375 139.304688 68.066406 138.757812 67.78125 C 138.609375 67.707031 138.492188 67.527344 138.492188 67.382812 Z M 143.707031 67.53125 C 143.707031 67.433594 143.761719 67.378906 143.839844 67.378906 C 143.878906 67.378906 143.921875 67.390625 143.96875 67.417969 C 144.515625 67.726562 145.066406 68.042969 145.613281 68.355469 C 145.757812 68.4375 145.875 68.625 145.875 68.769531 L 145.875 71.460938 C 145.875 71.554688 145.820312 71.613281 145.742188 71.613281 C 145.703125 71.613281 145.660156 71.601562 145.613281 71.574219 C 145.066406 71.257812 144.515625 70.945312 143.96875 70.632812 C 143.824219 70.550781 143.707031 70.367188 143.707031 70.226562 Z M 150.828125 71.390625 C 150.972656 71.472656 151.089844 71.660156 151.089844 71.804688 L 151.089844 74.496094 C 151.089844 74.59375 151.035156 74.644531 150.957031 74.644531 C 150.917969 74.644531 150.875 74.632812 150.828125 74.605469 C 150.277344 74.285156 149.730469 73.960938 149.183594 73.644531 C 149.042969 73.558594 148.921875 73.375 148.921875 73.230469 L 148.921875 70.539062 C 148.921875 70.441406 148.976562 70.386719 149.054688 70.386719 C 149.089844 70.386719 149.136719 70.398438 149.183594 70.429688 C 149.730469 70.75 150.277344 71.070312 150.828125 71.390625 Z M 154.136719 73.574219 C 154.136719 73.476562 154.1875 73.421875 154.269531 73.421875 C 154.304688 73.421875 154.351562 73.433594 154.398438 73.464844 C 154.945312 73.777344 155.496094 74.089844 156.042969 74.398438 C 156.1875 74.480469 156.300781 74.667969 156.300781 74.8125 L 156.300781 77.503906 C 156.300781 77.601562 156.25 77.652344 156.167969 77.652344 C 156.132812 77.652344 156.089844 77.640625 156.042969 77.613281 C 155.496094 77.304688 154.945312 76.992188 154.398438 76.675781 C 154.253906 76.59375 154.136719 76.410156 154.136719 76.265625 Z M 164.566406 79.179688 C 164.566406 79.074219 164.625 79.011719 164.714844 79.011719 C 164.746094 79.011719 164.785156 79.019531 164.824219 79.039062 C 165.375 79.300781 165.921875 79.554688 166.472656 79.804688 C 166.613281 79.867188 166.730469 80.039062 166.730469 80.183594 L 166.730469 82.878906 C 166.730469 82.984375 166.667969 83.046875 166.574219 83.046875 C 166.542969 83.046875 166.507812 83.035156 166.472656 83.019531 C 165.921875 82.773438 165.375 82.515625 164.824219 82.257812 C 164.683594 82.1875 164.566406 82.015625 164.566406 81.871094 Z M 169.78125 81.472656 C 169.777344 81.359375 169.847656 81.292969 169.945312 81.292969 C 169.972656 81.292969 170.007812 81.296875 170.039062 81.308594 C 170.585938 81.523438 171.136719 81.726562 171.683594 81.921875 C 171.828125 81.972656 171.945312 82.132812 171.945312 82.273438 C 171.941406 83.175781 171.941406 84.070312 171.941406 84.96875 C 171.945312 85.082031 171.871094 85.15625 171.769531 85.15625 C 171.742188 85.15625 171.714844 85.148438 171.683594 85.136719 C 171.136719 84.945312 170.585938 84.738281 170.039062 84.527344 C 169.894531 84.46875 169.777344 84.304688 169.78125 84.164062 Z M 174.992188 83.238281 C 174.992188 83.121094 175.074219 83.039062 175.1875 83.039062 C 175.207031 83.039062 175.230469 83.042969 175.253906 83.050781 C 175.804688 83.199219 176.351562 83.335938 176.898438 83.464844 C 177.042969 83.5 177.160156 83.644531 177.160156 83.789062 L 177.160156 86.480469 C 177.160156 86.605469 177.070312 86.6875 176.957031 86.6875 C 176.9375 86.6875 176.917969 86.6875 176.898438 86.683594 C 176.351562 86.554688 175.804688 86.414062 175.253906 86.265625 C 175.109375 86.226562 174.992188 86.074219 174.992188 85.933594 Z M 180.207031 84.347656 C 180.207031 84.214844 180.304688 84.117188 180.433594 84.117188 C 180.445312 84.117188 180.457031 84.121094 180.46875 84.121094 C 181.015625 84.191406 181.5625 84.253906 182.113281 84.296875 C 182.253906 84.308594 182.375 84.433594 182.371094 84.582031 L 182.371094 87.273438 C 182.371094 87.410156 182.265625 87.511719 182.132812 87.511719 L 182.113281 87.511719 C 181.5625 87.46875 181.015625 87.410156 180.46875 87.335938 C 180.324219 87.316406 180.207031 87.183594 180.207031 87.039062 Z M 185.421875 84.65625 C 185.421875 84.511719 185.535156 84.390625 185.683594 84.386719 C 186.230469 84.367188 186.777344 84.328125 187.324219 84.277344 C 187.335938 84.277344 187.34375 84.277344 187.351562 84.277344 C 187.480469 84.277344 187.585938 84.378906 187.585938 84.515625 L 187.585938 87.207031 C 187.585938 87.351562 187.46875 87.480469 187.324219 87.492188 C 186.808594 87.542969 186.292969 87.578125 185.773438 87.597656 C 185.746094 87.597656 185.710938 87.597656 185.683594 87.601562 L 185.671875 87.601562 C 185.535156 87.601562 185.421875 87.484375 185.421875 87.347656 Z M 190.632812 84.023438 C 190.632812 83.882812 190.753906 83.738281 190.894531 83.707031 C 191.441406 83.578125 191.992188 83.4375 192.539062 83.273438 C 192.566406 83.265625 192.589844 83.261719 192.613281 83.261719 C 192.722656 83.261719 192.800781 83.335938 192.800781 83.457031 L 192.800781 86.148438 C 192.800781 86.292969 192.683594 86.445312 192.539062 86.488281 C 191.992188 86.648438 191.441406 86.792969 190.894531 86.921875 C 190.875 86.925781 190.855469 86.925781 190.839844 86.925781 C 190.722656 86.925781 190.636719 86.839844 190.632812 86.71875 Z M 195.847656 82.320312 C 195.847656 82.175781 195.96875 82.007812 196.109375 81.941406 C 196.65625 81.695312 197.207031 81.429688 197.753906 81.140625 C 197.796875 81.117188 197.839844 81.105469 197.875 81.105469 C 197.957031 81.105469 198.015625 81.164062 198.015625 81.261719 L 198.015625 83.957031 C 198.015625 84.101562 197.898438 84.28125 197.753906 84.355469 C 197.207031 84.644531 196.65625 84.910156 196.109375 85.15625 C 196.070312 85.175781 196.039062 85.183594 196.003906 85.183594 C 195.914062 85.183594 195.847656 85.117188 195.847656 85.015625 Z M 201.0625 79.402344 C 201.0625 79.257812 201.179688 79.058594 201.324219 78.960938 C 201.871094 78.574219 202.421875 78.171875 202.96875 77.746094 C 203.027344 77.695312 203.082031 77.671875 203.128906 77.671875 C 203.191406 77.671875 203.226562 77.714844 203.226562 77.800781 L 203.226562 80.492188 C 203.230469 80.636719 203.113281 80.84375 202.96875 80.957031 C 202.421875 81.386719 201.871094 81.792969 201.324219 82.175781 C 201.269531 82.214844 201.21875 82.230469 201.175781 82.230469 C 201.105469 82.230469 201.0625 82.183594 201.0625 82.097656 Z M 206.277344 75.128906 C 206.277344 74.988281 206.394531 74.757812 206.539062 74.617188 C 207.085938 74.085938 207.632812 73.527344 208.183594 72.945312 C 208.257812 72.863281 208.324219 72.824219 208.371094 72.824219 C 208.414062 72.824219 208.441406 72.859375 208.441406 72.929688 L 208.441406 75.621094 C 208.441406 75.761719 208.324219 76.007812 208.183594 76.160156 C 207.632812 76.742188 207.085938 77.300781 206.539062 77.832031 C 206.46875 77.902344 206.402344 77.933594 206.359375 77.933594 C 206.308594 77.933594 206.277344 77.898438 206.277344 77.824219 Z M 188.34375 83.109375 C 187.113281 83.273438 185.878906 83.347656 184.644531 83.347656 C 184.203125 83.347656 183.761719 83.335938 183.316406 83.316406 C 176.691406 83.027344 170.058594 80.597656 163.433594 77.304688 C 159.035156 75.125 154.640625 72.5625 150.242188 69.992188 C 148.425781 68.933594 146.609375 67.871094 144.792969 66.832031 C 140.097656 64.152344 135.40625 61.640625 130.710938 59.75 C 126.238281 57.945312 121.765625 56.707031 117.292969 56.425781 C 116.648438 56.382812 116.007812 56.359375 115.367188 56.359375 C 112.832031 56.359375 110.296875 56.683594 107.761719 57.40625 C 101.84375 59.089844 95.925781 62.933594 90.003906 69.855469 L 90.003906 97.03125 C 97.332031 88.472656 104.65625 84.613281 111.984375 83.738281 C 113.109375 83.601562 114.238281 83.539062 115.367188 83.539062 C 115.859375 83.539062 116.351562 83.550781 116.847656 83.574219 C 121.695312 83.808594 126.546875 85.1875 131.394531 87.203125 C 134.0625 88.308594 136.722656 89.609375 139.390625 91.019531 C 144.996094 93.988281 150.605469 97.445312 156.210938 100.617188 C 158.746094 102.050781 161.28125 103.425781 163.8125 104.671875 C 170.757812 108.082031 177.703125 110.523438 184.644531 110.523438 C 193.101562 110.523438 201.550781 106.914062 210.003906 97.03125 L 210.003906 69.855469 C 202.785156 78.292969 195.566406 82.160156 188.34375 83.109375 " fill-opacity="1" fill-rule="nonzero"/></g><g fill="#ffde59" fill-opacity="1"><g transform="translate(4.968756, 139.290838)"><g><path d="M 34.875 -21.96875 L 31.671875 -21.96875 L 31.671875 -1.359375 L 34.875 -1.359375 L 34.875 0 L 20.578125 0 L 20.578125 -1.359375 L 23.78125 -1.359375 L 23.78125 -18.640625 L 16.671875 0 L 13.84375 0 L 5.828125 -19.109375 L 5.828125 -3.0625 C 5.828125 -2.6875 5.957031 -2.378906 6.21875 -2.140625 C 6.476562 -1.910156 6.773438 -1.738281 7.109375 -1.625 C 7.441406 -1.519531 7.734375 -1.445312 7.984375 -1.40625 C 8.242188 -1.375 8.375 -1.359375 8.375 -1.359375 L 9.171875 -1.359375 L 9.171875 0 L 0.859375 0 L 0.859375 -1.359375 L 1.5 -1.359375 C 1.5 -1.359375 1.625 -1.375 1.875 -1.40625 C 2.132812 -1.445312 2.4375 -1.519531 2.78125 -1.625 C 3.125 -1.738281 3.421875 -1.910156 3.671875 -2.140625 C 3.929688 -2.378906 4.0625 -2.6875 4.0625 -3.0625 L 4.0625 -21.96875 L 0.859375 -21.96875 L 0.859375 -23.34375 L 11.96875 -23.34375 L 18.109375 -8.40625 L 23.78125 -23.34375 L 34.875 -23.34375 Z M 15.234375 -0.90625 L 16 -2.90625 L 8.171875 -21.96875 L 6.4375 -21.96875 Z M 27.3125 -1.359375 L 27.3125 -21.96875 L 25.578125 -21.96875 L 25.578125 -1.359375 Z M 27.3125 -1.359375 "/></g></g></g><g fill="#ffde59" fill-opacity="1"><g transform="translate(40.696429, 139.290838)"><g><path d="M 14.109375 -24.078125 C 15.929688 -24.078125 17.640625 -23.753906 19.234375 -23.109375 C 20.835938 -22.460938 22.242188 -21.570312 23.453125 -20.4375 C 24.671875 -19.300781 25.625 -17.988281 26.3125 -16.5 C 27 -15.007812 27.34375 -13.410156 27.34375 -11.703125 C 27.34375 -9.992188 27 -8.394531 26.3125 -6.90625 C 25.625 -5.414062 24.671875 -4.101562 23.453125 -2.96875 C 22.242188 -1.832031 20.835938 -0.941406 19.234375 -0.296875 C 17.640625 0.347656 15.929688 0.671875 14.109375 0.671875 C 12.285156 0.671875 10.570312 0.347656 8.96875 -0.296875 C 7.363281 -0.941406 5.957031 -1.832031 4.75 -2.96875 C 3.539062 -4.101562 2.585938 -5.414062 1.890625 -6.90625 C 1.203125 -8.394531 0.859375 -9.992188 0.859375 -11.703125 C 0.859375 -13.410156 1.203125 -15.007812 1.890625 -16.5 C 2.585938 -17.988281 3.539062 -19.300781 4.75 -20.4375 C 5.957031 -21.570312 7.363281 -22.460938 8.96875 -23.109375 C 10.570312 -23.753906 12.285156 -24.078125 14.109375 -24.078125 Z M 14.109375 -1.4375 C 15.035156 -1.4375 15.875 -1.894531 16.625 -2.8125 C 17.382812 -3.738281 17.992188 -4.976562 18.453125 -6.53125 C 18.910156 -8.09375 19.140625 -9.816406 19.140625 -11.703125 C 19.140625 -13.585938 18.910156 -15.304688 18.453125 -16.859375 C 17.992188 -18.421875 17.382812 -19.664062 16.625 -20.59375 C 15.875 -21.53125 15.035156 -22 14.109375 -22 C 13.171875 -22 12.320312 -21.53125 11.5625 -20.59375 C 10.8125 -19.664062 10.207031 -18.421875 9.75 -16.859375 C 9.289062 -15.304688 9.0625 -13.585938 9.0625 -11.703125 C 9.0625 -9.816406 9.289062 -8.09375 9.75 -6.53125 C 10.207031 -4.976562 10.8125 -3.738281 11.5625 -2.8125 C 12.320312 -1.894531 13.171875 -1.4375 14.109375 -1.4375 Z M 14.109375 -1.4375 "/></g></g></g><g fill="#ffde59" fill-opacity="1"><g transform="translate(68.891968, 139.290838)"><g><path d="M 22.28125 -23.34375 L 29.546875 -23.34375 L 29.546875 -21.96875 C 28.804688 -21.925781 28.210938 -21.769531 27.765625 -21.5 C 27.328125 -21.238281 27.007812 -20.984375 26.8125 -20.734375 C 26.613281 -20.492188 26.515625 -20.375 26.515625 -20.375 L 17.140625 0 L 12.4375 0 L 2.296875 -21.96875 L 0.03125 -21.96875 L 0.03125 -23.34375 L 12.765625 -23.34375 L 12.765625 -21.96875 L 10.203125 -21.96875 L 17.84375 -5.40625 L 24.28125 -19.40625 C 24.28125 -19.40625 24.304688 -19.53125 24.359375 -19.78125 C 24.410156 -20.039062 24.421875 -20.335938 24.390625 -20.671875 C 24.359375 -21.003906 24.210938 -21.296875 23.953125 -21.546875 C 23.703125 -21.804688 23.273438 -21.945312 22.671875 -21.96875 L 22.28125 -21.96875 Z M 22.28125 -23.34375 "/></g></g></g><g fill="#ffde59" fill-opacity="1"><g transform="translate(98.453954, 139.290838)"><g><path d="M 15.140625 -21.96875 L 11.96875 -21.96875 L 11.96875 -1.359375 L 15.140625 -1.359375 L 15.140625 0 L 0.859375 0 L 0.859375 -1.359375 L 4.0625 -1.359375 L 4.0625 -21.96875 L 0.859375 -21.96875 L 0.859375 -23.34375 L 15.140625 -23.34375 Z M 15.140625 -21.96875 "/></g></g></g><g fill="#ffde59" fill-opacity="1"><g transform="translate(114.45142, 139.290838)"><g><path d="M 18.34375 -1.359375 C 19.050781 -1.359375 19.738281 -1.554688 20.40625 -1.953125 C 21.070312 -2.359375 21.695312 -2.878906 22.28125 -3.515625 C 22.875 -4.148438 23.410156 -4.816406 23.890625 -5.515625 C 24.367188 -6.210938 24.78125 -6.878906 25.125 -7.515625 C 25.46875 -8.148438 25.734375 -8.664062 25.921875 -9.0625 C 26.109375 -9.46875 26.203125 -9.671875 26.203125 -9.671875 L 27.609375 -9.671875 L 24.171875 0 L 0.859375 0 L 0.859375 -1.359375 L 4.0625 -1.359375 L 4.0625 -21.96875 L 0.859375 -21.96875 L 0.859375 -23.34375 L 24.171875 -23.34375 L 27.609375 -13.640625 L 26.203125 -13.640625 C 26.203125 -13.640625 26.109375 -13.84375 25.921875 -14.25 C 25.734375 -14.664062 25.46875 -15.179688 25.125 -15.796875 C 24.78125 -16.421875 24.367188 -17.085938 23.890625 -17.796875 C 23.410156 -18.515625 22.875 -19.1875 22.28125 -19.8125 C 21.695312 -20.445312 21.070312 -20.960938 20.40625 -21.359375 C 19.738281 -21.765625 19.050781 -21.96875 18.34375 -21.96875 L 11.96875 -21.96875 L 11.96875 -13.03125 L 13.796875 -13.03125 C 14.378906 -13.03125 14.863281 -13.1875 15.25 -13.5 C 15.644531 -13.8125 15.957031 -14.203125 16.1875 -14.671875 C 16.414062 -15.140625 16.585938 -15.613281 16.703125 -16.09375 C 16.816406 -16.570312 16.894531 -16.960938 16.9375 -17.265625 C 16.976562 -17.578125 17 -17.734375 17 -17.734375 L 18.34375 -17.734375 L 18.34375 -6.96875 L 17 -6.96875 C 17 -6.96875 16.96875 -7.1875 16.90625 -7.625 C 16.84375 -8.070312 16.710938 -8.597656 16.515625 -9.203125 C 16.328125 -9.804688 16.039062 -10.34375 15.65625 -10.8125 C 15.269531 -11.289062 14.753906 -11.578125 14.109375 -11.671875 L 11.96875 -11.671875 L 11.96875 -1.359375 Z M 18.34375 -1.359375 "/></g></g></g><g fill="#ffde59" fill-opacity="1"><g transform="translate(142.913583, 139.290838)"><g/></g></g><g fill="#ffde59" fill-opacity="1"><g transform="translate(158.477788, 139.290838)"><g><path d="M 34.875 -21.96875 L 31.671875 -21.96875 L 31.671875 -1.359375 L 34.875 -1.359375 L 34.875 0 L 20.578125 0 L 20.578125 -1.359375 L 23.78125 -1.359375 L 23.78125 -18.640625 L 16.671875 0 L 13.84375 0 L 5.828125 -19.109375 L 5.828125 -3.0625 C 5.828125 -2.6875 5.957031 -2.378906 6.21875 -2.140625 C 6.476562 -1.910156 6.773438 -1.738281 7.109375 -1.625 C 7.441406 -1.519531 7.734375 -1.445312 7.984375 -1.40625 C 8.242188 -1.375 8.375 -1.359375 8.375 -1.359375 L 9.171875 -1.359375 L 9.171875 0 L 0.859375 0 L 0.859375 -1.359375 L 1.5 -1.359375 C 1.5 -1.359375 1.625 -1.375 1.875 -1.40625 C 2.132812 -1.445312 2.4375 -1.519531 2.78125 -1.625 C 3.125 -1.738281 3.421875 -1.910156 3.671875 -2.140625 C 3.929688 -2.378906 4.0625 -2.6875 4.0625 -3.0625 L 4.0625 -21.96875 L 0.859375 -21.96875 L 0.859375 -23.34375 L 11.96875 -23.34375 L 18.109375 -8.40625 L 23.78125 -23.34375 L 34.875 -23.34375 Z M 15.234375 -0.90625 L 16 -2.90625 L 8.171875 -21.96875 L 6.4375 -21.96875 Z M 27.3125 -1.359375 L 27.3125 -21.96875 L 25.578125 -21.96875 L 25.578125 -1.359375 Z M 27.3125 -1.359375 "/></g></g></g><g fill="#ffde59" fill-opacity="1"><g transform="translate(194.205461, 139.290838)"><g><path d="M 27.28125 -1.359375 L 29.546875 -1.359375 L 29.546875 0 L 16.8125 0 L 16.8125 -1.359375 L 19.375 -1.359375 L 16.234375 -8.171875 L 7.234375 -8.171875 L 5.296875 -3.9375 C 5.296875 -3.9375 5.269531 -3.8125 5.21875 -3.5625 C 5.164062 -3.320312 5.15625 -3.035156 5.1875 -2.703125 C 5.21875 -2.367188 5.351562 -2.066406 5.59375 -1.796875 C 5.84375 -1.535156 6.28125 -1.390625 6.90625 -1.359375 L 7.296875 -1.359375 L 7.296875 0 L 0.03125 0 L 0.03125 -1.359375 C 0.769531 -1.410156 1.359375 -1.566406 1.796875 -1.828125 C 2.242188 -2.097656 2.566406 -2.351562 2.765625 -2.59375 C 2.960938 -2.84375 3.0625 -2.96875 3.0625 -2.96875 L 11.84375 -21.96875 L 8.265625 -21.96875 L 8.265625 -23.34375 L 17.140625 -23.34375 Z M 7.9375 -9.703125 L 15.53125 -9.703125 L 11.734375 -17.9375 Z M 7.9375 -9.703125 "/></g></g></g><g fill="#ffde59" fill-opacity="1"><g transform="translate(223.767459, 139.290838)"><g><path d="M 16.703125 -9.171875 L 16.703125 -10.53125 L 26.9375 -10.53125 L 26.9375 0.359375 L 24.8125 0.359375 C 24.8125 0.359375 24.753906 0.210938 24.640625 -0.078125 C 24.523438 -0.378906 24.28125 -0.722656 23.90625 -1.109375 C 23.53125 -1.503906 22.953125 -1.820312 22.171875 -2.0625 C 21.035156 -1.3125 19.785156 -0.71875 18.421875 -0.28125 C 17.054688 0.144531 15.617188 0.359375 14.109375 0.359375 C 14.054688 0.359375 14.007812 0.351562 13.96875 0.34375 C 13.925781 0.332031 13.882812 0.328125 13.84375 0.328125 C 12.039062 0.304688 10.351562 -0.03125 8.78125 -0.6875 C 7.21875 -1.34375 5.84375 -2.226562 4.65625 -3.34375 C 3.46875 -4.46875 2.535156 -5.769531 1.859375 -7.25 C 1.191406 -8.726562 0.859375 -10.3125 0.859375 -12 C 0.859375 -13.6875 1.191406 -15.269531 1.859375 -16.75 C 2.535156 -18.226562 3.46875 -19.53125 4.65625 -20.65625 C 5.84375 -21.78125 7.21875 -22.671875 8.78125 -23.328125 C 10.351562 -23.984375 12.039062 -24.332031 13.84375 -24.375 C 13.882812 -24.375 13.925781 -24.375 13.96875 -24.375 C 14.007812 -24.375 14.054688 -24.375 14.109375 -24.375 C 15.660156 -24.375 17.132812 -24.148438 18.53125 -23.703125 C 19.9375 -23.265625 21.207031 -22.644531 22.34375 -21.84375 C 22.65625 -21.644531 22.847656 -21.65625 22.921875 -21.875 C 23.003906 -22.09375 23.015625 -22.398438 22.953125 -22.796875 C 22.898438 -23.203125 22.832031 -23.578125 22.75 -23.921875 C 22.675781 -24.265625 22.640625 -24.4375 22.640625 -24.4375 L 24.46875 -24.4375 L 26.9375 -16.53125 L 24.90625 -15.84375 C 24.351562 -17.101562 23.535156 -18.222656 22.453125 -19.203125 C 21.378906 -20.179688 20.128906 -20.941406 18.703125 -21.484375 C 17.285156 -22.035156 15.753906 -22.3125 14.109375 -22.3125 C 13.171875 -22.3125 12.320312 -21.84375 11.5625 -20.90625 C 10.8125 -19.96875 10.207031 -18.722656 9.75 -17.171875 C 9.289062 -15.617188 9.0625 -13.894531 9.0625 -12 C 9.0625 -10.113281 9.289062 -8.390625 9.75 -6.828125 C 10.207031 -5.273438 10.8125 -4.035156 11.5625 -3.109375 C 12.320312 -2.191406 13.171875 -1.734375 14.109375 -1.734375 C 15.054688 -1.734375 15.960938 -1.828125 16.828125 -2.015625 C 17.703125 -2.203125 18.515625 -2.472656 19.265625 -2.828125 L 19.265625 -9.171875 Z M 16.703125 -9.171875 "/></g></g></g><g fill="#ffde59" fill-opacity="1"><g transform="translate(251.56305, 139.290838)"><g><path d="M 15.140625 -21.96875 L 11.96875 -21.96875 L 11.96875 -1.359375 L 15.140625 -1.359375 L 15.140625 0 L 0.859375 0 L 0.859375 -1.359375 L 4.0625 -1.359375 L 4.0625 -21.96875 L 0.859375 -21.96875 L 0.859375 -23.34375 L 15.140625 -23.34375 Z M 15.140625 -21.96875 "/></g></g></g><g fill="#ffde59" fill-opacity="1"><g transform="translate(267.560515, 139.290838)"><g><path d="M 13.734375 -1.734375 C 15.421875 -1.734375 16.960938 -2.015625 18.359375 -2.578125 C 19.765625 -3.148438 20.972656 -3.941406 21.984375 -4.953125 C 22.992188 -5.960938 23.78125 -7.132812 24.34375 -8.46875 L 26.46875 -7.609375 C 25.832031 -6.046875 24.878906 -4.671875 23.609375 -3.484375 C 22.335938 -2.296875 20.859375 -1.359375 19.171875 -0.671875 C 17.484375 0.015625 15.671875 0.359375 13.734375 0.359375 C 13.691406 0.359375 13.644531 0.351562 13.59375 0.34375 C 13.550781 0.332031 13.507812 0.328125 13.46875 0.328125 C 11.664062 0.304688 9.976562 -0.03125 8.40625 -0.6875 C 6.84375 -1.34375 5.46875 -2.234375 4.28125 -3.359375 C 3.09375 -4.492188 2.164062 -5.796875 1.5 -7.265625 C 0.832031 -8.734375 0.5 -10.3125 0.5 -12 C 0.5 -13.6875 0.832031 -15.269531 1.5 -16.75 C 2.164062 -18.226562 3.09375 -19.53125 4.28125 -20.65625 C 5.46875 -21.78125 6.84375 -22.671875 8.40625 -23.328125 C 9.976562 -23.984375 11.664062 -24.332031 13.46875 -24.375 C 13.507812 -24.375 13.550781 -24.375 13.59375 -24.375 C 13.644531 -24.375 13.691406 -24.375 13.734375 -24.375 C 15.296875 -24.375 16.773438 -24.148438 18.171875 -23.703125 C 19.566406 -23.265625 20.832031 -22.644531 21.96875 -21.84375 C 22.28125 -21.644531 22.472656 -21.65625 22.546875 -21.875 C 22.628906 -22.09375 22.640625 -22.398438 22.578125 -22.796875 C 22.523438 -23.203125 22.460938 -23.578125 22.390625 -23.921875 C 22.316406 -24.265625 22.28125 -24.4375 22.28125 -24.4375 L 24.109375 -24.4375 L 26.578125 -16.53125 L 24.546875 -15.84375 C 23.984375 -17.101562 23.160156 -18.222656 22.078125 -19.203125 C 21.003906 -20.179688 19.753906 -20.941406 18.328125 -21.484375 C 16.910156 -22.035156 15.378906 -22.3125 13.734375 -22.3125 C 12.804688 -22.3125 11.960938 -21.84375 11.203125 -20.90625 C 10.441406 -19.96875 9.832031 -18.722656 9.375 -17.171875 C 8.925781 -15.617188 8.703125 -13.894531 8.703125 -12 C 8.703125 -10.113281 8.925781 -8.390625 9.375 -6.828125 C 9.832031 -5.273438 10.441406 -4.035156 11.203125 -3.109375 C 11.960938 -2.191406 12.804688 -1.734375 13.734375 -1.734375 Z M 13.734375 -1.734375 "/></g></g></g></svg>